<?xml version="1.0" encoding="utf-8"?>
<!-- Generator: Adobe Illustrator 24.1.3, SVG Export Plug-In . SVG Version: 6.00 Build 0)  -->
<svg version="1.1" xmlns="http://www.w3.org/2000/svg" xmlns:xlink="http://www.w3.org/1999/xlink" x="0px" y="0px"
	 viewBox="0 0 276.91 275.93" style="enable-background:new 0 0 276.91 275.93;" xml:space="preserve">
<style type="text/css">
	.st0{display:none;fill:#EF7E19;}
	.st1{fill:#FF8000;}
	.st2{fill:#FFFFFF;}
	.st3{display:none;}
	.st4{display:inline;opacity:0.5;fill:#446CB2;}
</style>
<g id="Layer_1">
	<g>
		<path class="st1" d="M276.91,11.08c0-6.12-4.96-11.08-11.08-11.08L11.08,0C4.96,0,0,4.96,0,11.08v253.78
			c0,6.12,4.96,11.08,11.08,11.08l254.76,0c6.12,0,11.08-4.96,11.08-11.08L276.91,11.08z"/>
		<path id="House_5_" class="st2" d="M234.47,134.61c-6.38-10.69-13.44-20.96-21.12-30.76l-0.19-0.25l-0.06-0.07
			c-0.38-0.48-1.39-1.73-1.76-2.21c-3.51-4.8-7.62-43.24-8.1-46.08c-0.57-3.34-1.53-6.81-6.36-7.33c-3.93-0.41-9.73-1.06-16.16-1.39
			c-2.97-0.15-4.51,1.45-5.29,2.92c-0.54,1.01-0.77,2.15-0.79,3.29c-0.09,4.92,0.02,7.34,0.02,7.95c0,0.06-0.01,0.13-0.02,0.2
			c-0.07,0.34-0.25,0.63-0.5,0.84c-0.55,0.46-1.36,0.41-1.93-0.03c-3.04-2.32-18.92-14.37-27.7-19.81
			c-0.41-0.24-0.84-0.46-1.27-0.66c-3.21-1.44-6.94-1.49-9.99,0.27c-0.21,0.12-0.42,0.25-0.63,0.39
			c-2.89,1.82-52.37,29.91-89.82,92.41c0,0-2.33,3.26-0.58,6.32c1.69,3.51,18.04,4.51,20.66,4.81c2.95,0.31,2.94,2.73,2.94,2.73
			c0.31,25.65,0.75,38.11,4.94,81.61c0,0,0.67,4.54,5.16,4.76c1.82,0.09,8.55-0.3,26.5-0.7c0.68,0.07,1.3-0.42,1.37-1.11
			c0.01-0.1,0.01-0.21-0.01-0.31c-1.72-17.76-2.26-33.12-2.31-34.01c-0.04-0.64-0.62-1.59-1.21-1.83
			c-6.62-3.79-10.56-10.42-10.62-18.05c-0.5-35.16,1.65-62.14,1.65-62.14s0.21-3.74,3.5-3.44c3.29,0.3,3.07,3.98,3.07,3.98
			c-1.18,15.14-1.64,42.44-1.64,42.44s0,5.19,4.97,5.18c4.97-0.01,4.97-5.18,4.97-5.18c-0.15-21.36,1.65-42.83,1.65-42.83
			s0-3.64,3.51-3.64c1.91,0,2.64,1.31,2.92,2.36c0.15,0.57,0.18,1.15,0.13,1.73c-1.46,18.49-1.62,42.34-1.62,42.34s0,5.19,4.97,5.18
			c4.97-0.01,4.95-5.61,4.95-5.61c-0.08-17.7,1.66-42.36,1.66-42.36c0.15-1.92,1.11-3.59,3.46-3.61c2.92,0.09,3.15,2.9,3.09,3.61
			c-1.56,19.22-1.6,48.68-1.53,61.3c0.23,7.59-3.62,14.73-10.1,18.7c-0.6,0.4-0.92,1.1-0.84,1.82c0.41,11.69,1.39,24.65,2.24,33.94
			c0.04,0.62,0.52,1.13,1.15,1.19c4.96,0,14.49-0.06,20.47-0.06c9.6,0,13.43,0.06,20.47,0.16c0.79,0,1.17-0.58,1.24-1.39
			c1.82-16.82,2.45-29,2.54-30.07c0.11-1.2-1.37-1.43-1.37-1.43c-2.2-0.3-7.35-0.91-11.73-1.63c-4.38-0.72-4.54-5.71-4.54-5.71
			c-3.7-52.47,23.99-85.17,23.99-85.17s2.76-3.63,6.57-2.21c3.37,1.26,4.26,10.98,4.31,11.56c3.71,43.44-0.48,94.1-2.89,114.78
			c-0.1,0.85,0.3,1.51,1.06,1.69c0.96,0.16,17.58,0.71,19.1,0.54c2.7-0.28,4.87-2.34,5.29-5.02c5.89-40.64,4.99-81.41,4.99-81.41
			c0.12-1.45,1.27-2.6,2.73-2.73l15.93-1.71c2.09-0.31,3.87-1.14,4.79-2.94C235.65,138.79,235.58,136.48,234.47,134.61"/>
	</g>
</g>
<g id="Layer_2" class="st3">
</g>
</svg>
