<?xml version="1.0" encoding="utf-8"?>
<!-- Generator: Adobe Illustrator 23.0.3, SVG Export Plug-In . SVG Version: 6.00 Build 0)  -->
<svg version="1.1" id="Layer_1" xmlns="http://www.w3.org/2000/svg" xmlns:xlink="http://www.w3.org/1999/xlink" x="0px" y="0px"
	 viewBox="0 0 192.1 46.4" enable-background="new 0 0 192.1 46.4" xml:space="preserve">
<g>
	<g>
		<path fill="#231F20" d="M10.9,34.4c-3.6,0-6.7-1.2-7.3-1.4c-0.1-0.1-0.3-0.2-0.3-0.4v-0.1l0.4-1.6c0-0.2,0.2-0.4,0.5-0.4h0.2
			c0.3,0.1,3.2,1.2,6.6,1.2c3.5,0,5.5-1.1,5.5-3.6c0-3.4-2.6-3.3-5.8-3.8c-2-0.3-7.1-0.7-7.1-6.1c0-5.3,4.7-6.4,8.3-6.4
			c3.5,0,6.2,0.7,6.7,0.9c0.3,0,0.4,0.2,0.4,0.5v0.1l-0.3,1.8c0,0.2-0.2,0.3-0.4,0.3h-0.1c-0.6-0.1-3.6-0.8-6-0.8
			c-3,0-5.4,0.8-5.4,3.4c0,2.8,2.8,3.1,5.3,3.4c3.7,0.5,7.7,0.8,7.7,6.4C19.8,33.1,15.7,34.4,10.9,34.4z"/>
		<path fill="#231F20" d="M33.2,34.4c-7.2,0-9-3.1-9-8.5v-13c0-0.3,0.2-0.5,0.5-0.5l2.2-0.5H27c0.3,0,0.4,0.3,0.4,0.5v13.9
			c0,3.9,1.4,5.6,5.8,5.6c5.3,0,5.7-2.6,5.7-5.7V12.8c0-0.3,0.2-0.5,0.5-0.5l2.2-0.5h0.1c0.3,0,0.4,0.3,0.4,0.5v13.5
			C42.2,29.9,41.6,34.4,33.2,34.4z"/>
		<path fill="#231F20" d="M54.3,34.4c-3.6,0-6.7-1.2-7.3-1.4c-0.2-0.1-0.3-0.2-0.3-0.4v-0.1l0.4-1.6c0-0.2,0.2-0.4,0.5-0.4h0.2
			c0.3,0.1,3.2,1.2,6.6,1.2c3.5,0,5.5-1.1,5.5-3.6c0-3.4-2.6-3.3-5.8-3.8c-2-0.3-7.1-0.7-7.1-6.1c0-5.3,4.7-6.4,8.3-6.4
			c3.5,0,6.2,0.7,6.7,0.9c0.3,0,0.4,0.2,0.4,0.5v0.1l-0.3,1.8c0,0.2-0.2,0.3-0.4,0.3h-0.1c-0.6-0.1-3.6-0.8-6-0.8
			c-3,0-5.4,0.8-5.4,3.4c0,2.8,2.8,3.1,5.3,3.4c3.7,0.5,7.7,0.8,7.7,6.4C63.2,33.1,59.1,34.4,54.3,34.4z"/>
		<path fill="#231F20" d="M85.2,33.8h-2c-0.4,0-0.6-0.2-0.6-0.6V18c0-2.7-1-3.7-3.9-3.7c-3.8,0-7.7,1.1-7.7,1.1v17.7
			c0,0.4-0.2,0.6-0.6,0.6h-2.1c-0.4,0-0.6-0.2-0.6-0.6v-29c0-0.3,0.2-0.5,0.5-0.5L70.5,3h0.1C70.9,3,71,3.3,71,3.5v7.1L70.6,13
			c2.3-0.7,5.8-1.2,8.2-1.2c4.9,0,7.1,1.5,7.1,5.9v15.5C85.8,33.6,85.6,33.8,85.2,33.8z"/>
		<path fill="#231F20" d="M94.7,8.6h-2c-0.4,0-0.6-0.2-0.6-0.6V3.6c0-0.4,0.2-0.6,0.6-0.6h2c0.4,0,0.6,0.2,0.6,0.6V8
			C95.3,8.4,95,8.6,94.7,8.6z M94.7,33.8h-2c-0.4,0-0.6-0.2-0.6-0.6V12.9c0-0.4,0.2-0.6,0.6-0.6h2c0.4,0,0.6,0.2,0.6,0.6v20.3
			C95.3,33.6,95,33.8,94.7,33.8z"/>
		<path fill="#231F20" d="M119.8,33.2c0,0.4-0.2,0.7-0.5,0.7h-16c-0.3,0-0.5-0.2-0.5-0.6v-1.8v-0.3c0-1.8,0.4-2.3,2.1-3.3l4-2.4
			c2.9-1.8,6.3-3.5,6.3-6.9c0-3.9-3-4-5.2-4c-3,0-5.2,1-7,1.7c-0.1,0-0.2,0-0.2,0c-0.2,0-0.3-0.1-0.4-0.4l-0.3-1.5
			c0-0.1,0-0.2,0-0.3c0-0.2,0.1-0.4,0.3-0.5c1.1-0.6,4.5-1.8,8.2-1.8c4.6,0,8,1.8,8,6.8c0,4.3-3.2,6.2-6.6,8.2l-6.2,3.5v0.6h13.5
			c0.3,0,0.5,0.3,0.5,0.7C119.8,31.6,119.8,33.2,119.8,33.2z"/>
		<path fill="#231F20" d="M126.2,44.1H125c-0.2,0-0.6-0.1-0.6-0.5V42c0-0.5,0.3-0.6,0.6-0.6c4.9-0.1,13.9-0.3,13.9-8.3
			c0-4.2-2.3-6.4-6.4-6.4c-2.4,0-5.6,1.1-6.6,1.4c-0.1,0-0.2,0.1-0.3,0.1s-0.2,0-0.3-0.1c-0.1-0.1-0.4-0.4-0.4-0.5l0.9-14.8
			c0-0.2,0.2-0.5,0.4-0.5H141c0.3,0,0.6,0.3,0.6,0.7v1.6c0,0.4-0.2,0.7-0.6,0.7h-12.5l-0.5,9.4c0,0,2.5-0.9,5.5-0.9
			c5.1,0,8.6,3.1,8.6,9.1C142.2,43.5,131.8,44.1,126.2,44.1z"/>
		<path fill="#231F20" d="M155.7,34.4c-8.6,0-9.7-5.3-9.7-11.3c0-5.9,1.1-11.3,9.7-11.3s9.7,5.4,9.7,11.3S164.3,34.4,155.7,34.4z
			 M155.7,14.4c-5.6,0-6.2,3.2-6.2,8.7c0,5.6,0.7,8.8,6.2,8.8c5.6,0,6.2-3.2,6.2-8.8C162,17.5,161.3,14.4,155.7,14.4z"/>
	</g>
	<g>
		<path fill="#231F20" d="M179.9,34.4c-8.6,0-9.7-5.3-9.7-11.3c0-5.9,1.1-11.3,9.7-11.3s9.7,5.4,9.7,11.3
			C189.6,29,188.5,34.4,179.9,34.4z M179.9,14.4c-5.6,0-6.2,3.2-6.2,8.7c0,5.6,0.7,8.8,6.2,8.8c5.6,0,6.2-3.2,6.2-8.8
			C186.2,17.5,185.6,14.4,179.9,14.4z"/>
	</g>
</g>
</svg>
