<?xml version="1.0" encoding="UTF-8" standalone="no"?>
<!-- Created with Inkscape (http://www.inkscape.org/) -->
<svg
   xmlns:dc="http://purl.org/dc/elements/1.1/"
   xmlns:cc="http://creativecommons.org/ns#"
   xmlns:rdf="http://www.w3.org/1999/02/22-rdf-syntax-ns#"
   xmlns:svg="http://www.w3.org/2000/svg"
   xmlns="http://www.w3.org/2000/svg"
   xmlns:sodipodi="http://sodipodi.sourceforge.net/DTD/sodipodi-0.dtd"
   xmlns:inkscape="http://www.inkscape.org/namespaces/inkscape"
   width="600"
   height="796.36365"
   id="svg2"
   sodipodi:version="0.32"
   inkscape:version="0.46"
   version="1.0"
   sodipodi:docname="Gentofte_Kommune_coa.svg"
   inkscape:output_extension="org.inkscape.output.svg.inkscape">
  <defs
     id="defs4" />
  <sodipodi:namedview
     id="base"
     pagecolor="#e0e0e0"
     bordercolor="#666666"
     borderopacity="1.0"
     inkscape:pageopacity="1"
     inkscape:pageshadow="2"
     inkscape:zoom="0.49497475"
     inkscape:cx="343.87333"
     inkscape:cy="544.99303"
     inkscape:document-units="px"
     inkscape:current-layer="svg2"
     showgrid="false"
     inkscape:showpageshadow="false"
     showguides="true"
     inkscape:guide-bbox="true"
     inkscape:window-width="1680"
     inkscape:window-height="964"
     inkscape:window-x="-4"
     inkscape:window-y="-4" />
  <metadata
     id="metadata7">
    <rdf:RDF>
      <cc:Work
         rdf:about="">
        <dc:format>image/svg+xml</dc:format>
        <dc:type
           rdf:resource="http://purl.org/dc/dcmitype/StillImage" />
        <dc:title>Gentofte Kommune COA</dc:title>
        <dc:date>2010-07-05</dc:date>
        <dc:creator>
          <cc:Agent>
            <dc:title>Erik Frohne</dc:title>
          </cc:Agent>
        </dc:creator>
        <dc:source>http://www.gentofte.dk/upload/pdf/velkommengentofte_2009_dk.pdf</dc:source>
        <cc:license
           rdf:resource="http://creativecommons.org/licenses/by-sa/3.0/" />
      </cc:Work>
      <cc:License
         rdf:about="http://creativecommons.org/licenses/by-sa/3.0/">
        <cc:permits
           rdf:resource="http://creativecommons.org/ns#Reproduction" />
        <cc:permits
           rdf:resource="http://creativecommons.org/ns#Distribution" />
        <cc:requires
           rdf:resource="http://creativecommons.org/ns#Notice" />
        <cc:requires
           rdf:resource="http://creativecommons.org/ns#Attribution" />
        <cc:permits
           rdf:resource="http://creativecommons.org/ns#DerivativeWorks" />
        <cc:requires
           rdf:resource="http://creativecommons.org/ns#ShareAlike" />
      </cc:License>
    </rdf:RDF>
  </metadata>
  <path
     sodipodi:nodetypes="cccccc"
     id="Shield-BG"
     d="M 0.71428572,2.792218 L 599.28571,1.3636466 L 599.28571,506.36365 C 600.65845,642.38182 419.12095,734.35485 299.28571,796.36365 C 170.34334,735.30104 1.182508,632.26361 0.71428572,507.79222 L 0.71428572,2.792218 z"
     style="fill:#0062a1;fill-opacity:1;fill-rule:evenodd;stroke:none;stroke-width:1px;stroke-linecap:butt;stroke-linejoin:miter;stroke-opacity:1" />
  <path
     d="M 23.214286,25.29222 L 574.28572,25.29222 L 574.64286,517.79222 C 573.29352,626.30869 372.21991,736.89541 299.28571,769.93505 C 225.4579,736.44958 24.397156,625.96219 23.928571,517.79222 L 23.214286,25.29222 z M 45.535715,81.18508 L 79.107143,47.07793 L 45.535715,47.07793 L 45.535715,81.18508 z M 103.57143,47.07793 L 138.21429,47.07793 L 199.28571,110.64936 L 199.28571,138.86365 L 45.535715,139.22079 L 45.535715,107.07793 L 103.57143,47.07793 z M 163.39286,47.07793 L 199.28571,47.07793 L 199.28571,84.7565 L 163.39286,47.07793 z M 115.53571,120.29222 L 128.57143,120.29222 L 128.57143,132.2565 L 115.53571,132.2565 L 115.53571,120.29222 z M 86.785714,117.07793 L 157.14286,117.07793 C 157.237,106.22881 150.91631,104.69925 147.32143,99.04265 C 141.02451,89.13433 140.62324,78.00154 137.5,67.61365 C 136.62817,64.71395 136.32369,61.40298 131.60714,59.93508 L 113.75,59.93508 C 109.6949,60.28349 107.79333,63.8773 106.96429,67.61365 C 104.2697,79.75774 102.67645,91.33113 96.785714,99.04265 C 92.125614,105.14315 86.209809,109.05881 86.785714,117.07793 z M 222.05358,81.18508 L 255.62501,47.07793 L 222.05358,47.07793 L 222.05358,81.18508 z M 280.08929,47.07793 L 314.73215,47.07793 L 375.80357,110.64936 L 375.80357,138.86365 L 222.05358,139.22079 L 222.05358,107.07793 L 280.08929,47.07793 z M 339.91072,47.07793 L 375.80357,47.07793 L 375.80357,84.75651 L 339.91072,47.07793 z M 292.05357,120.29222 L 305.08929,120.29222 L 305.08929,132.2565 L 292.05357,132.2565 L 292.05357,120.29222 z M 263.30358,117.07793 L 333.66072,117.07793 C 333.75486,106.22881 327.43417,104.69925 323.83929,99.04265 C 317.54237,89.13433 317.1411,78.00154 314.01786,67.61365 C 313.14603,64.71395 312.84155,61.40298 308.125,59.93508 L 290.26786,59.93508 C 286.21276,60.28349 284.31119,63.8773 283.48215,67.61365 C 280.78756,79.75774 279.19431,91.33113 273.30358,99.04265 C 268.64348,105.14315 262.72767,109.05881 263.30358,117.07793 z M 553.30357,81.18507 L 519.73214,47.07793 L 553.30357,47.07793 L 553.30357,81.18507 z M 495.26785,47.07793 L 460.62499,47.07793 L 399.55357,110.64936 L 399.55357,138.86365 L 553.30357,139.22079 L 553.30357,107.07793 L 495.26785,47.07793 z M 435.44642,47.07793 L 399.55357,47.07793 L 399.55357,84.7565 L 435.44642,47.07793 z M 483.30357,120.29222 L 470.26785,120.29222 L 470.26785,132.2565 L 483.30357,132.2565 L 483.30357,120.29222 z M 512.05357,117.07793 L 441.69642,117.07793 C 441.60228,106.22881 447.92297,104.69925 451.51785,99.04265 C 457.81477,89.13433 458.21604,78.00153 461.33928,67.61365 C 462.21111,64.71395 462.51559,61.40298 467.23214,59.93507 L 485.08928,59.93507 C 489.14438,60.28349 491.04595,63.8773 491.87499,67.61365 C 494.56958,79.75774 496.16283,91.33113 502.05357,99.04265 C 506.71367,105.14315 512.62947,109.05881 512.05357,117.07793 z M 299.10715,744.93505 L 248.39285,718.68508 C 264.90337,713.63831 277.40264,704.2479 298.21429,703.86365 C 317.71973,703.50351 332.86116,713.17966 349.82143,718.68507 L 299.10715,744.93505 z M 186.42857,681.89936 L 224.82143,705.64936 C 241.9099,699.70254 270.00649,683.99828 299.46429,683.5065 C 324.33363,683.08834 348.90481,696.64611 374.28572,705.29222 L 413.75,680.64936 C 402.9784,683.90551 396.23389,686.07274 383.75,685.82793 C 343.05593,685.02992 330.46378,665.12369 298.57143,664.93508 C 270.7494,664.77054 248.42882,685.9099 213.57143,686.18508 C 202.61389,686.27158 195.26316,683.49836 186.42857,681.89936 z M 463.39286,645.29222 C 471.9277,638.01311 481.75104,629.76763 483.92857,627.2565 C 478.72544,625.87706 473.40782,624.6186 467.5,624.7565 C 439.17396,625.41773 417.17124,646.5483 382.67857,646.72079 C 356.28945,646.85413 323.88917,624.87983 297.5,624.7565 C 271.00755,624.63268 243.53333,646.47841 213.21428,645.91722 C 181.35863,645.31517 157.76858,625.39788 128.21429,624.93508 C 121.78737,624.83444 117.87695,626.13545 113.75,627.2565 C 120.50389,633.32793 126.59525,639.39936 135.35714,645.47079 C 137.0585,645.35806 138.29768,645.42266 143.48214,645.47079 C 156.73419,645.59381 193.88727,665.77272 212.32143,666.18507 C 239.13235,666.7848 265.32486,644.85802 298.75,644.57793 C 330.41898,644.31331 358.24278,665.8248 384.64286,665.47079 C 410.8259,665.12209 442.18099,644.2584 459.46429,644.57793 C 460.77763,644.60221 462.08334,644.94944 463.39286,645.29222 z M 84.017857,597.97079 L 96.339286,611.0065 C 96.339286,611.0065 115.05008,604.95384 129.91071,605.20293 C 167.00383,605.83997 186.02186,626.13756 214.19643,625.82793 C 240.50657,625.53508 265.65253,605.27369 299.46429,605.29222 C 330.86654,605.30925 357.79422,625.69394 383.83929,625.73865 C 410.02809,625.78361 428.64761,606.29401 468.75,605.47079 C 482.51657,605.19552 502.32143,610.82793 502.32143,610.82793 L 514.375,597.97079 C 514.375,597.97079 482.9829,585.19162 468.75,584.93508 C 442.51484,584.46221 416.86442,605.92246 383.83929,605.91722 C 351.69089,605.91218 325.54126,585.04336 299.46429,585.02436 C 273.12085,585.00517 246.96844,605.98255 214.19643,606.0065 C 181.38532,606.03021 155.92472,584.70061 129.91071,585.47079 C 111.35687,586.0201 84.017857,597.97079 84.017857,597.97079 z M 70.892857,580.29222 C 65.385266,574.8406 62.756933,569.19216 60,564.04222 L 538.39286,564.04222 C 535.14633,569.80797 531.88409,575.56978 527.32143,581.0065 C 527.32143,581.0065 491.62714,565.16816 468.57143,565.11365 C 433.44052,565.03089 410.35967,586.30827 382.67857,586.36365 C 361.05067,586.40672 329.26879,564.97149 298.92857,565.11365 C 261.77735,565.28714 239.58034,586.43791 213.03571,586.36365 C 190.1675,586.29932 161.26692,565.18295 128.92857,565.11365 C 104.87148,565.06237 70.892857,580.29222 70.892857,580.29222 z M 385.49947,555.06346 L 420.8548,555.18973 C 430.29854,550.67764 439.22121,546.37086 440.69437,543.03092 L 385.24693,551.14912 L 385.49947,555.06346 z M 382.72155,539.91117 L 383.58376,542.97861 L 448.76027,533.85025 L 457.72537,517.56154 L 382.72155,539.91117 z M 378.55467,528.54695 L 380.0699,531.95622 L 461.26091,507.71256 L 461.26091,491.04504 L 378.55467,528.54695 z M 373.75644,518.31916 L 375.65048,521.34962 L 461.26091,481.8274 L 461.26091,464.276 L 373.75644,518.31916 z M 367.31672,509.10152 L 369.46329,511.6269 L 461.26091,454.67955 L 461.26091,430.43589 L 367.31672,509.10152 z M 359.86684,500.13641 L 362.01342,502.91433 L 461.26091,419.82929 L 461.26091,389.39844 L 359.86684,500.13641 z M 351.15428,492.56027 L 353.67966,494.95938 L 461.26091,377.52915 L 461.26091,350.50757 C 461.26091,347.1374 459.75796,341.65645 457.5991,338.51201 L 351.15428,492.56027 z M 516.875,532.16722 L 551.78572,526.81008 C 550.18745,536.00799 548.17158,545.13629 543.75,553.86365 C 532.74083,550.84711 523.60006,543.98998 516.875,532.16722 z M 553.48214,518.5065 L 553.48214,489.48865 L 510.71429,501.81008 C 510.70871,507.93493 510.20033,511.876 513.30357,523.77436 L 553.48214,518.5065 z M 510.71429,493.14936 L 553.48214,480.73865 L 553.48214,450.02437 L 510.71429,469.1315 L 510.71429,493.14936 z M 510.71429,460.47079 L 553.48214,441.0065 L 553.48214,408.59579 L 510.71429,434.22079 L 510.71429,460.47079 z M 510.71429,423.77436 L 553.48214,397.97079 L 553.482,354.1315 L 510.71429,389.31007 L 510.71429,423.77436 z M 341.60715,486.45294 L 344.55357,488.5065 L 452.5,330.91722 C 444.53159,320.69265 438.42521,314.72417 432.05357,308.14936 L 341.60715,486.45294 z M 331.60714,481.81007 L 334.46429,483.23865 L 425.44643,302.8815 C 417.85487,296.86315 410.4819,290.94416 400.35714,283.77436 L 331.60714,481.81007 z M 213.61881,554.14801 L 178.26348,554.27428 C 168.81974,549.76219 159.89707,545.45541 158.42391,542.11547 L 213.87135,550.23367 L 213.61881,554.14801 z M 216.39673,538.99572 L 215.53452,542.06316 L 150.35801,532.9348 L 141.39291,516.64609 L 216.39673,538.99572 z M 220.56361,527.6315 L 219.04838,531.04077 L 137.85737,506.79711 L 137.85737,490.12959 L 220.56361,527.6315 z M 225.36184,517.40371 L 223.4678,520.43417 L 137.85737,480.91195 L 137.85737,463.36055 L 225.36184,517.40371 z M 231.80156,508.18607 L 229.65499,510.71145 L 137.85737,453.7641 L 137.85737,429.52044 L 231.80156,508.18607 z M 239.25144,499.22096 L 237.10486,501.99888 L 137.85737,418.91384 L 137.85737,388.48299 L 239.25144,499.22096 z M 247.964,491.64482 L 245.43862,494.04393 L 137.85737,376.6137 L 137.85737,349.59212 C 137.85737,346.22195 139.36032,340.741 141.51918,337.59656 L 247.964,491.64482 z M 82.24328,531.25177 L 47.33256,525.89463 C 48.93083,535.09254 50.9467,544.22084 55.36828,552.9482 C 66.37745,549.93166 75.51822,543.07453 82.24328,531.25177 z M 45.63614,517.59105 L 45.63614,488.5732 L 88.40399,500.89463 C 88.40957,507.01948 88.91795,510.96055 85.81471,522.85891 L 45.63614,517.59105 z M 88.40399,492.23391 L 45.63614,479.8232 L 45.63614,449.10892 L 88.40399,468.21605 L 88.40399,492.23391 z M 88.40399,459.55534 L 45.63614,440.09105 L 45.63614,407.68034 L 88.40399,433.30534 L 88.40399,459.55534 z M 88.40399,422.85891 L 45.63614,397.05534 L 45.636,353.21605 L 88.40399,388.39462 L 88.40399,422.85891 z M 257.51113,485.53749 L 254.56471,487.59105 L 146.61828,330.00177 C 154.58669,319.7772 160.69307,313.80872 167.06471,307.23391 L 257.51113,485.53749 z M 267.51114,480.89462 L 264.65399,482.3232 L 173.67185,301.96605 C 181.26341,295.9477 188.63638,290.02871 198.76114,282.85891 L 267.51114,480.89462 z M 86.620581,319.57165 L 78.034284,328.41048 L 87.883272,341.795 L 87.630733,376.39273 L 45.636,341.795 L 45.636,156.68455 L 553.482,157.18962 L 553.482,343.81531 L 511.38973,378.16049 L 511.38973,341.03739 L 520.4811,328.91556 L 512.14734,319.82418 C 463.94984,343.0744 442.13231,295.13679 384.36304,264.51833 L 384.61558,272.85209 L 392.6968,277.65031 L 324.00643,478.67067 L 320.4709,477.66052 L 362.8973,266.2861 L 355.06862,264.51833 L 312.64221,477.15544 L 308.85414,475.89275 L 322.74374,260.73026 L 313.65237,260.73026 L 301.78307,474.8826 L 297.23739,475.38768 L 285.36809,260.47772 L 277.03434,260.73026 L 290.16632,476.65037 L 286.12571,476.39783 L 244.45692,264.77087 L 236.12316,266.53864 L 278.8021,478.67067 L 275.77165,478.67067 L 206.32366,278.66047 L 216.67772,271.08432 L 216.42518,262.75056 C 158.29007,296.97026 127.53376,343.62235 86.620581,319.57165 z M 53.214286,325.29222 C 74.452782,332.3248 107.4288,297.37414 85,279.22079 C 65.367268,263.33052 37.601913,300.86366 53.214286,325.29222 z M 150,288.5065 C 138.92371,270.56768 89.037516,271.25145 97.142858,304.22079 C 102.79692,327.21927 142.65794,318.97183 150,288.5065 z M 55.714286,221.36365 C 81.793958,213.74467 111.56825,255.77103 85.357143,269.22079 C 61.611183,281.40561 43.53099,240.79986 55.714286,221.36365 z M 55.622508,164.63042 C 81.70218,157.01144 111.47647,199.0378 85.265365,212.48756 C 61.519405,224.67238 43.439212,184.06663 55.622508,164.63042 z M 142.94892,165.34471 C 116.86925,157.72573 87.094961,199.75209 113.30606,213.20185 C 137.05203,225.38667 155.13222,184.78092 142.94892,165.34471 z M 141.8775,217.84471 C 115.79783,210.22573 86.023529,252.25209 112.23464,265.70185 C 135.9806,277.88667 154.06079,237.28092 141.8775,217.84471 z M 184.73463,236.05899 C 158.65496,228.44001 128.88067,270.46637 155.09177,283.91613 C 178.83773,296.10095 196.91793,255.4952 184.73463,236.05899 z M 182.67857,174.22079 C 157.59625,176.56251 140.81869,219.84995 166.78571,228.68507 C 192.41848,237.40646 204.07527,191.29886 182.67857,174.22079 z M 194.46429,166.72079 C 188.31708,191.23249 220.48689,220.49546 238.21429,202.07793 C 255.27351,184.35459 225.339,150.88856 194.46429,166.72079 z M 295.04418,167.14429 C 301.19139,191.65599 269.02158,220.91896 251.29418,202.50143 C 234.23496,184.77809 264.16947,151.31206 295.04418,167.14429 z M 194.42011,251.29729 C 188.2729,226.78559 220.44271,197.52262 238.17011,215.94015 C 255.22933,233.66349 225.29482,267.12952 194.42011,251.29729 z M 296.29418,247.19015 C 301.36996,222.67845 265.54519,199.58545 249.86561,217.90444 C 233.45748,237.07463 265.77662,266.41524 296.29418,247.19015 z M 403.43078,167.11111 C 409.57799,191.62281 377.40818,220.88578 359.68078,202.46825 C 342.62156,184.74491 372.55607,151.27888 403.43078,167.11111 z M 302.85089,167.53461 C 296.70368,192.04631 328.87349,221.30928 346.60089,202.89175 C 363.66011,185.16841 333.7256,151.70238 302.85089,167.53461 z M 403.47496,251.68761 C 409.62217,227.17591 377.45236,197.91294 359.72496,216.33047 C 342.66574,234.05381 372.60025,267.51984 403.47496,251.68761 z M 301.60089,247.58047 C 296.52511,223.06877 332.34988,199.97577 348.02946,218.29476 C 364.43759,237.46495 332.11845,266.80556 301.60089,247.58047 z M 545.16047,325.2632 C 523.92197,332.29578 490.94595,297.34512 513.37475,279.19177 C 533.00748,263.3015 560.77284,300.83464 545.16047,325.2632 z M 448.37475,288.47748 C 459.45104,270.53866 509.33724,271.22243 501.2319,304.19177 C 495.57783,327.19025 455.71681,318.94281 448.37475,288.47748 z M 542.66047,221.33463 C 516.58079,213.71565 486.8065,255.74201 513.01761,269.19177 C 536.76357,281.37659 554.84376,240.77084 542.66047,221.33463 z M 450.96154,163.88712 C 477.39836,156.62528 506.8155,197.75878 481.14012,211.74426 C 457.70194,224.51112 438.77824,183.32333 450.96154,163.88712 z M 456.49725,217.81569 C 482.57692,210.19671 512.35122,252.22307 486.14011,265.67283 C 462.39415,277.85765 444.31396,237.2519 456.49725,217.81569 z M 413.64012,236.02997 C 439.71979,228.41099 469.49408,270.43735 443.28298,283.88711 C 419.53702,296.07193 401.45682,255.46618 413.64012,236.02997 z M 415.69618,174.19177 C 440.7785,176.53349 457.55606,219.82093 431.58904,228.65605 C 405.95627,237.37744 394.29948,191.26984 415.69618,174.19177 z M 522.14286,210.82793 C 538.72238,210.7668 561.41618,169.44049 536.42857,165.29222 C 526.85787,163.70336 526.52519,174.97158 522.14286,174.93507 C 517.21721,174.89403 517.02226,164.15559 508.39286,165.64936 C 483.35212,169.98397 505.52205,210.88855 522.14286,210.82793 z"
     style="fill:#cd8931;fill-opacity:1;fill-rule:evenodd;stroke:none;stroke-width:1px;stroke-linecap:butt;stroke-linejoin:miter;stroke-opacity:1"
     id="Shield-FG" />
</svg>
