<?xml version="1.0" encoding="UTF-8" standalone="no"?>
<!-- Created with Inkscape (http://www.inkscape.org/) -->
<svg
   xmlns:dc="http://purl.org/dc/elements/1.1/"
   xmlns:cc="http://creativecommons.org/ns#"
   xmlns:rdf="http://www.w3.org/1999/02/22-rdf-syntax-ns#"
   xmlns:svg="http://www.w3.org/2000/svg"
   xmlns="http://www.w3.org/2000/svg"
   xmlns:sodipodi="http://sodipodi.sourceforge.net/DTD/sodipodi-0.dtd"
   xmlns:inkscape="http://www.inkscape.org/namespaces/inkscape"
   width="600"
   height="666.97247"
   id="svg2"
   sodipodi:version="0.32"
   inkscape:version="0.46"
   version="1.0"
   sodipodi:docname="Glostrup_Kommune_coa.svg"
   inkscape:output_extension="org.inkscape.output.svg.inkscape">
  <defs
     id="defs4" />
  <sodipodi:namedview
     id="base"
     pagecolor="#e0e0e0"
     bordercolor="#666666"
     borderopacity="1.0"
     inkscape:pageopacity="1"
     inkscape:pageshadow="2"
     inkscape:zoom="0.7"
     inkscape:cx="492.34942"
     inkscape:cy="430.07504"
     inkscape:document-units="px"
     inkscape:current-layer="layer1"
     showgrid="false"
     inkscape:showpageshadow="false"
     inkscape:window-width="1680"
     inkscape:window-height="964"
     inkscape:window-x="-4"
     inkscape:window-y="-4"
     showborder="false" />
  <metadata
     id="metadata7">
    <rdf:RDF>
      <cc:Work
         rdf:about="">
        <dc:format>image/svg+xml</dc:format>
        <dc:type
           rdf:resource="http://purl.org/dc/dcmitype/StillImage" />
        <dc:title>Glostrup Kommune COA</dc:title>
        <dc:date>2010-07-05</dc:date>
        <dc:creator>
          <cc:Agent>
            <dc:title>Erik Frohne</dc:title>
          </cc:Agent>
        </dc:creator>
        <dc:source> http://www.glostrup.dk/~/media/Borgmesterkontoret/Diverse/Byv%C3%A5ben/byv%C3%A5ben%20farver.jpg.ashx</dc:source>
      </cc:Work>
    </rdf:RDF>
  </metadata>
  <g
     inkscape:label="Ebene 1"
     inkscape:groupmode="layer"
     id="layer1"
     transform="translate(0,-385.38971)">
    <path
       style="fill:#000000;fill-opacity:1;fill-rule:evenodd;stroke:none;stroke-width:1px;stroke-linecap:butt;stroke-linejoin:miter;stroke-opacity:1"
       d="M 0.71428572,1.2581867 C 598.57143,-0.1703847 597.14286,1.2581867 597.14286,1.2581867 L 597.85714,366.97247 C 593.1728,568.70594 434.51431,666.44218 292.14286,665.5439 C 147.26625,664.62981 1.190477,550.06771 1.4285714,366.97247 L 0.71428572,1.2581867 z"
       id="Shield-BG-Black"
       transform="translate(0,385.38971)"
       sodipodi:nodetypes="cccscc" />
    <path
       style="fill:#fe1a00;fill-opacity:1;fill-rule:evenodd;stroke:none;stroke-width:1px;stroke-linecap:butt;stroke-linejoin:miter;stroke-opacity:1"
       d="M 11.428571,11.258187 L 585.71429,11.972472 L 584.28571,366.97247 C 583.86905,470.51286 532.34552,542.0608 486.4796,581.32086 C 428.26287,631.15288 362.49989,652.11491 292.14286,652.68676 C 214.3658,653.31892 137.86896,614.64491 88.448654,563.52901 C 62.654937,536.85032 12.339276,464.78899 12.142857,366.97247 L 11.428571,11.258187 z"
       id="Shield-BG-Red"
       transform="translate(0,385.38971)"
       sodipodi:nodetypes="ccsssssc" />
    <g
       id="Ball">
      <path
         sodipodi:open="true"
         sodipodi:end="6.2800765"
         sodipodi:start="0"
         transform="matrix(1.1978873,0,0,1.3281317,-23.397992,327.84068)"
         d="M 346.78571,254.2939 A 78.75,70.89286 0 1 1 346.78533,254.07351"
         sodipodi:ry="70.89286"
         sodipodi:rx="78.75"
         sodipodi:cy="254.2939"
         sodipodi:cx="268.03571"
         id="path3232"
         style="opacity:1;fill:#000000;fill-opacity:1;fill-rule:evenodd;stroke:none;stroke-width:1;stroke-linecap:square;stroke-linejoin:round;stroke-miterlimit:4;stroke-dasharray:none;stroke-dashoffset:0;stroke-opacity:1"
         sodipodi:type="arc" />
      <path
         sodipodi:type="arc"
         style="opacity:1;fill:#ffb202;fill-opacity:1;fill-rule:evenodd;stroke:none;stroke-width:1;stroke-linecap:square;stroke-linejoin:round;stroke-miterlimit:4;stroke-dasharray:none;stroke-dashoffset:0;stroke-opacity:1"
         id="path3234"
         sodipodi:cx="283.75"
         sodipodi:cy="274.65103"
         sodipodi:rx="70.178574"
         sodipodi:ry="73.035713"
         d="M 353.92857,274.65103 A 70.178574,73.035713 0 1 1 353.92823,274.42398"
         transform="matrix(1.1998077,0,0,1.1406464,-42.588279,352.83243)"
         sodipodi:start="0"
         sodipodi:end="6.2800765"
         sodipodi:open="true" />
      <path
         style="fill:#000000;fill-opacity:1;fill-rule:evenodd;stroke:#000000;stroke-width:1px;stroke-linecap:butt;stroke-linejoin:miter;stroke-opacity:1"
         d="M 329.64286,208.75819 C 406.98599,255.92265 375.65859,362.97989 282.85714,357.32962 C 369.50152,374.41045 418.44409,253.92397 329.64286,208.75819 z"
         id="path3230"
         transform="translate(0,385.38971)"
         sodipodi:nodetypes="ccc" />
    </g>
    <g
       id="Lily-Bottom">
      <path
         sodipodi:nodetypes="ccccsccscccscsscccccccccc"
         transform="translate(0,385.38971)"
         id="path3261"
         d="M 263.64981,471.00288 C 261.08864,474.88597 259.38134,478.78353 264.15489,484.63994 C 261.36479,488.41075 259.92846,491.94915 263.90235,500.2973 C 259.42379,505.93432 260.51422,510.05252 263.39728,513.68182 C 261.72766,519.76602 259.44568,523.96572 253.80083,524.28843 C 243.14341,524.8977 254.2984,501.24847 248.24499,490.95339 C 234.43148,474.21604 219.25247,477.86605 214.90995,482.61963 C 218.71026,510.43861 202.45556,518.09935 203.04066,536.15772 C 203.92604,563.48371 226.58373,578.41291 252.03306,571.26052 C 260.3713,602.54785 277.5951,593.5949 292.18663,629.34429 C 309.10765,592.94651 322.20952,601.49964 332.84527,569.49275 C 352.58779,575.60309 379.99491,558.92769 382.34274,533.88488 C 384.53673,510.48298 361.37605,496.22603 369.96837,480.34679 C 354.60265,474.37713 343.39009,477.69804 335.87572,490.44832 C 329.49503,501.27498 339.37686,517.19587 333.60288,521.76304 C 328.58643,525.73101 322.69997,519.05882 320.4709,510.9039 C 325.74481,505.52622 323.07899,502.79511 320.4709,500.04476 C 326.28284,486.85799 319.8691,488.34204 319.46074,482.61963 C 324.9119,479.92751 324.43302,475.96467 320.4709,471.25542 C 321.0554,467.40003 342.20587,453.09721 343.95694,475.04349 C 386.41683,472.04924 352.83687,417.49855 322.99628,432.61708 C 312.4024,410.64858 304.68695,410.972 293.19678,388.67545 C 279.67462,410.34585 272.36544,409.78611 261.88205,431.60693 C 223.66877,422.38218 197.49041,472.4007 241.17392,476.30618 C 243.93932,455.10698 261.47459,467.94352 263.64981,471.00288 z"
         style="fill:#000000;fill-opacity:1;fill-rule:evenodd;stroke:none;stroke-width:1px;stroke-linecap:butt;stroke-linejoin:miter;stroke-opacity:1" />
      <path
         id="path3288"
         style="fill:#7e7e7e;fill-opacity:1;fill-rule:evenodd;stroke:none;stroke-width:1px;stroke-linecap:butt;stroke-linejoin:miter;stroke-opacity:1"
         d="M 273.24626,857.78155 L 268.32177,857.78155 C 259.39678,836.91237 238.08111,843.82293 236.12316,857.1502 C 224.97208,858.14176 218.07499,824.85451 250.39156,824.57278 C 276.12376,824.34845 281.30048,845.53527 281.58002,857.78155 L 277.79195,857.78155 C 276.12739,850.48486 270.35858,832.534 252.03306,832.52774 C 234.53186,832.52176 234.17897,840.77196 232.71389,845.02837 C 237.04668,838.91585 242.49539,834.87998 251.02291,834.92685 C 265.53751,835.00663 272.60657,849.36564 273.24626,857.78155 z M 311.24322,857.78155 L 316.16771,857.78155 C 325.0927,836.91237 346.40837,842.89103 348.36632,856.2183 C 359.5174,857.20986 366.41449,823.92261 334.09792,823.64088 C 308.36572,823.41655 303.189,845.53527 302.90946,857.78155 L 306.69753,857.78155 C 308.36209,850.48486 314.1309,831.6021 332.45642,831.59584 C 349.95762,831.58986 350.31051,839.84006 351.77559,844.09647 C 347.4428,837.98395 341.99409,833.94808 333.46657,833.99495 C 318.95197,834.07473 311.88291,849.36564 311.24322,857.78155 z M 292.31289,809.4205 L 288.65109,857.78155 L 286.63079,857.78155 C 283.85731,832.90754 275.7178,830.95452 268.82685,823.18382 C 268.80182,809.28683 285.53646,801.17092 292.3129,782.65146 C 299.38396,801.42346 314.05439,807.39932 314.53625,823.18382 C 303.45753,828.60426 302.19044,845.22529 298.24754,857.78155 L 296.3535,857.78155 L 292.31289,809.4205 z M 270.34207,862.4535 L 314.78879,862.4535 C 316.76569,862.54868 317.20136,868.07309 314.28371,868.00935 L 270.21581,868.00935 C 266.73888,867.75681 266.84073,862.70604 270.34207,862.4535 z M 270.2471,872.05689 L 315.94689,872.05689 C 317.97952,872.23644 318.43103,882.81288 315.43113,882.69264 L 270.11728,882.69264 C 266.54233,882.21623 266.64706,872.5333 270.2471,872.05689 z M 271.0727,886.14321 L 315.51942,886.14321 C 317.49632,886.23839 318.05826,891.51026 315.14061,891.44652 L 270.94644,891.44652 C 267.46951,891.19398 267.57136,886.39575 271.0727,886.14321 z M 270.0523,896.95653 L 272.99873,896.95653 C 271.98682,900.8851 269.41174,934.85057 244.10714,933.96933 C 213.63378,932.90808 235.17857,896.23123 231.07142,877.36218 C 232.38099,893.99685 209.00531,936.22446 243.39286,937.8979 C 271.77528,939.27911 275.26064,901.15296 276.65945,896.95653 L 279.96302,896.95653 C 273.26547,947.19888 251.56134,951.08463 241.51785,951.20147 C 222.53465,951.42439 210.80451,937.19092 210.7035,918.26426 C 210.60087,899.03466 225.69736,892.3216 221.69643,872.36218 C 243.51041,869.71268 246.27497,878.57329 243.09679,899.20447 C 242.01742,906.21121 244.13083,915.83649 251.875,916.29075 C 261.93259,916.87399 266.4103,905.20825 270.0523,896.95653 z M 314.21497,896.95653 L 311.2794,896.95653 C 312.28758,900.92249 315.10526,932.56447 340.3167,931.67484 C 370.67788,930.6035 349.21241,893.57758 353.30444,874.52894 C 351.99969,891.32193 375.28932,933.95143 341.02835,935.6408 C 312.75042,937.03515 309.02581,901.1929 307.63216,896.95653 C 306.53502,896.95653 305.43789,896.95653 304.34075,896.95653 C 311.01364,947.67705 332.88995,948.95304 342.89647,949.07099 C 361.80978,949.29603 373.49674,934.92709 373.59738,915.8203 C 373.69963,896.40768 358.65871,889.63073 362.64491,869.48135 C 340.91124,866.80664 338.15686,875.75158 341.32333,896.57911 C 342.39873,903.65254 340.2931,913.36943 332.57744,913.82801 C 322.55688,914.4168 317.84358,905.28679 314.21497,896.95653 z M 285.5575,896.95653 C 281.16646,931.01259 271.99131,940.54579 262.00831,950.58931 C 260.44644,961.23619 264.78061,972.05128 274.81936,978.58455 C 283.90482,984.49741 287.81857,990.59264 292.6917,1000.8444 C 297.83721,990.25095 303.74557,981.39745 311.11777,975.85881 C 316.92709,971.49435 325.05191,963.0986 323.62762,948.69528 C 309.80566,936.98422 302.72565,918.74869 299.32082,896.95653 L 297.45836,896.95653 L 292.43916,958.29173 L 288.36698,896.95653 L 285.5575,896.95653 z" />
    </g>
    <g
       id="Lily-Top-Left"
       transform="matrix(-0.7095356,0.7046696,-0.7046696,-0.7095356,963.9527,937.41394)">
      <path
         style="fill:#000000;fill-opacity:1;fill-rule:evenodd;stroke:none;stroke-width:1px;stroke-linecap:butt;stroke-linejoin:miter;stroke-opacity:1"
         d="M 263.64981,471.00288 C 261.08864,474.88597 259.38134,478.78353 264.15489,484.63994 C 261.36479,488.41075 259.92846,491.94915 263.90235,500.2973 C 259.42379,505.93432 260.51422,510.05252 263.39728,513.68182 C 261.72766,519.76602 259.44568,523.96572 253.80083,524.28843 C 243.14341,524.8977 254.2984,501.24847 248.24499,490.95339 C 234.43148,474.21604 219.25247,477.86605 214.90995,482.61963 C 218.71026,510.43861 202.45556,518.09935 203.04066,536.15772 C 203.92604,563.48371 226.58373,578.41291 252.03306,571.26052 C 260.3713,602.54785 277.5951,593.5949 292.18663,629.34429 C 309.10765,592.94651 322.20952,601.49964 332.84527,569.49275 C 352.58779,575.60309 379.99491,558.92769 382.34274,533.88488 C 384.53673,510.48298 361.37605,496.22603 369.96837,480.34679 C 354.60265,474.37713 343.39009,477.69804 335.87572,490.44832 C 329.49503,501.27498 339.37686,517.19587 333.60288,521.76304 C 328.58643,525.73101 322.69997,519.05882 320.4709,510.9039 C 325.74481,505.52622 323.07899,502.79511 320.4709,500.04476 C 326.28284,486.85799 319.8691,488.34204 319.46074,482.61963 C 324.9119,479.92751 324.43302,475.96467 320.4709,471.25542 C 321.0554,467.40003 342.20587,453.09721 343.95694,475.04349 C 386.41683,472.04924 352.83687,417.49855 322.99628,432.61708 C 312.4024,410.64858 304.68695,410.972 293.19678,388.67545 C 279.67462,410.34585 272.36544,409.78611 261.88205,431.60693 C 223.66877,422.38218 197.49041,472.4007 241.17392,476.30618 C 243.93932,455.10698 261.47459,467.94352 263.64981,471.00288 z"
         id="path3305"
         transform="translate(0,385.38971)"
         sodipodi:nodetypes="ccccsccscccscsscccccccccc" />
      <path
         d="M 273.24626,857.78155 L 268.32177,857.78155 C 259.39678,836.91237 238.08111,843.82293 236.12316,857.1502 C 224.97208,858.14176 218.07499,824.85451 250.39156,824.57278 C 276.12376,824.34845 281.30048,845.53527 281.58002,857.78155 L 277.79195,857.78155 C 276.12739,850.48486 270.35858,832.534 252.03306,832.52774 C 234.53186,832.52176 234.17897,840.77196 232.71389,845.02837 C 237.04668,838.91585 242.49539,834.87998 251.02291,834.92685 C 265.53751,835.00663 272.60657,849.36564 273.24626,857.78155 z M 311.24322,857.78155 L 316.16771,857.78155 C 325.0927,836.91237 346.40837,842.89103 348.36632,856.2183 C 359.5174,857.20986 366.41449,823.92261 334.09792,823.64088 C 308.36572,823.41655 303.189,845.53527 302.90946,857.78155 L 306.69753,857.78155 C 308.36209,850.48486 314.1309,831.6021 332.45642,831.59584 C 349.95762,831.58986 350.31051,839.84006 351.77559,844.09647 C 347.4428,837.98395 341.99409,833.94808 333.46657,833.99495 C 318.95197,834.07473 311.88291,849.36564 311.24322,857.78155 z M 292.31289,809.4205 L 288.65109,857.78155 L 286.63079,857.78155 C 283.85731,832.90754 275.7178,830.95452 268.82685,823.18382 C 268.80182,809.28683 285.53646,801.17092 292.3129,782.65146 C 299.38396,801.42346 314.05439,807.39932 314.53625,823.18382 C 303.45753,828.60426 302.19044,845.22529 298.24754,857.78155 L 296.3535,857.78155 L 292.31289,809.4205 z M 270.34207,862.4535 L 314.78879,862.4535 C 316.76569,862.54868 317.20136,868.07309 314.28371,868.00935 L 270.21581,868.00935 C 266.73888,867.75681 266.84073,862.70604 270.34207,862.4535 z M 270.2471,872.05689 L 315.94689,872.05689 C 317.97952,872.23644 318.43103,882.81288 315.43113,882.69264 L 270.11728,882.69264 C 266.54233,882.21623 266.64706,872.5333 270.2471,872.05689 z M 271.0727,886.14321 L 315.51942,886.14321 C 317.49632,886.23839 318.05826,891.51026 315.14061,891.44652 L 270.94644,891.44652 C 267.46951,891.19398 267.57136,886.39575 271.0727,886.14321 z M 270.0523,896.95653 L 272.99873,896.95653 C 271.98682,900.8851 269.41174,934.85057 244.10714,933.96933 C 213.63378,932.90808 235.17857,896.23123 231.07142,877.36218 C 232.38099,893.99685 209.00531,936.22446 243.39286,937.8979 C 271.77528,939.27911 275.26064,901.15296 276.65945,896.95653 L 279.96302,896.95653 C 273.26547,947.19888 251.56134,951.08463 241.51785,951.20147 C 222.53465,951.42439 210.80451,937.19092 210.7035,918.26426 C 210.60087,899.03466 225.69736,892.3216 221.69643,872.36218 C 243.51041,869.71268 246.27497,878.57329 243.09679,899.20447 C 242.01742,906.21121 244.13083,915.83649 251.875,916.29075 C 261.93259,916.87399 266.4103,905.20825 270.0523,896.95653 z M 314.21497,896.95653 L 311.2794,896.95653 C 312.28758,900.92249 315.10526,932.56447 340.3167,931.67484 C 370.67788,930.6035 349.21241,893.57758 353.30444,874.52894 C 351.99969,891.32193 375.28932,933.95143 341.02835,935.6408 C 312.75042,937.03515 309.02581,901.1929 307.63216,896.95653 C 306.53502,896.95653 305.43789,896.95653 304.34075,896.95653 C 311.01364,947.67705 332.88995,948.95304 342.89647,949.07099 C 361.80978,949.29603 373.49674,934.92709 373.59738,915.8203 C 373.69963,896.40768 358.65871,889.63073 362.64491,869.48135 C 340.91124,866.80664 338.15686,875.75158 341.32333,896.57911 C 342.39873,903.65254 340.2931,913.36943 332.57744,913.82801 C 322.55688,914.4168 317.84358,905.28679 314.21497,896.95653 z M 285.5575,896.95653 C 281.16646,931.01259 271.99131,940.54579 262.00831,950.58931 C 260.44644,961.23619 264.78061,972.05128 274.81936,978.58455 C 283.90482,984.49741 287.81857,990.59264 292.6917,1000.8444 C 297.83721,990.25095 303.74557,981.39745 311.11777,975.85881 C 316.92709,971.49435 325.05191,963.0986 323.62762,948.69528 C 309.80566,936.98422 302.72565,918.74869 299.32082,896.95653 L 297.45836,896.95653 L 292.43916,958.29173 L 288.36698,896.95653 L 285.5575,896.95653 z"
         style="fill:#7e7e7e;fill-opacity:1;fill-rule:evenodd;stroke:none;stroke-width:1px;stroke-linecap:butt;stroke-linejoin:miter;stroke-opacity:1"
         id="path3307" />
    </g>
    <g
       id="Lily-Top-Right"
       transform="matrix(0.6535072,0.7569203,0.7569203,-0.6535072,-396.89698,871.55054)">
      <path
         style="fill:#000000;fill-opacity:1;fill-rule:evenodd;stroke:none;stroke-width:1px;stroke-linecap:butt;stroke-linejoin:miter;stroke-opacity:1"
         d="M 263.64981,471.00288 C 261.08864,474.88597 259.38134,478.78353 264.15489,484.63994 C 261.36479,488.41075 259.92846,491.94915 263.90235,500.2973 C 259.42379,505.93432 260.51422,510.05252 263.39728,513.68182 C 261.72766,519.76602 259.44568,523.96572 253.80083,524.28843 C 243.14341,524.8977 254.2984,501.24847 248.24499,490.95339 C 234.43148,474.21604 219.25247,477.86605 214.90995,482.61963 C 218.71026,510.43861 202.45556,518.09935 203.04066,536.15772 C 203.92604,563.48371 226.58373,578.41291 252.03306,571.26052 C 260.3713,602.54785 277.5951,593.5949 292.18663,629.34429 C 309.10765,592.94651 322.20952,601.49964 332.84527,569.49275 C 352.58779,575.60309 379.99491,558.92769 382.34274,533.88488 C 384.53673,510.48298 361.37605,496.22603 369.96837,480.34679 C 354.60265,474.37713 343.39009,477.69804 335.87572,490.44832 C 329.49503,501.27498 339.37686,517.19587 333.60288,521.76304 C 328.58643,525.73101 322.69997,519.05882 320.4709,510.9039 C 325.74481,505.52622 323.07899,502.79511 320.4709,500.04476 C 326.28284,486.85799 319.8691,488.34204 319.46074,482.61963 C 324.9119,479.92751 324.43302,475.96467 320.4709,471.25542 C 321.0554,467.40003 342.20587,453.09721 343.95694,475.04349 C 386.41683,472.04924 352.83687,417.49855 322.99628,432.61708 C 312.4024,410.64858 304.68695,410.972 293.19678,388.67545 C 279.67462,410.34585 272.36544,409.78611 261.88205,431.60693 C 223.66877,422.38218 197.49041,472.4007 241.17392,476.30618 C 243.93932,455.10698 261.47459,467.94352 263.64981,471.00288 z"
         id="path3312"
         transform="translate(0,385.38971)"
         sodipodi:nodetypes="ccccsccscccscsscccccccccc" />
      <path
         d="M 273.24626,857.78155 L 268.32177,857.78155 C 259.39678,836.91237 238.08111,843.82293 236.12316,857.1502 C 224.97208,858.14176 218.07499,824.85451 250.39156,824.57278 C 276.12376,824.34845 281.30048,845.53527 281.58002,857.78155 L 277.79195,857.78155 C 276.12739,850.48486 270.35858,832.534 252.03306,832.52774 C 234.53186,832.52176 234.17897,840.77196 232.71389,845.02837 C 237.04668,838.91585 242.49539,834.87998 251.02291,834.92685 C 265.53751,835.00663 272.60657,849.36564 273.24626,857.78155 z M 311.24322,857.78155 L 316.16771,857.78155 C 325.0927,836.91237 346.40837,842.89103 348.36632,856.2183 C 359.5174,857.20986 366.41449,823.92261 334.09792,823.64088 C 308.36572,823.41655 303.189,845.53527 302.90946,857.78155 L 306.69753,857.78155 C 308.36209,850.48486 314.1309,831.6021 332.45642,831.59584 C 349.95762,831.58986 350.31051,839.84006 351.77559,844.09647 C 347.4428,837.98395 341.99409,833.94808 333.46657,833.99495 C 318.95197,834.07473 311.88291,849.36564 311.24322,857.78155 z M 292.31289,809.4205 L 288.65109,857.78155 L 286.63079,857.78155 C 283.85731,832.90754 275.7178,830.95452 268.82685,823.18382 C 268.80182,809.28683 285.53646,801.17092 292.3129,782.65146 C 299.38396,801.42346 314.05439,807.39932 314.53625,823.18382 C 303.45753,828.60426 302.19044,845.22529 298.24754,857.78155 L 296.3535,857.78155 L 292.31289,809.4205 z M 270.34207,862.4535 L 314.78879,862.4535 C 316.76569,862.54868 317.20136,868.07309 314.28371,868.00935 L 270.21581,868.00935 C 266.73888,867.75681 266.84073,862.70604 270.34207,862.4535 z M 270.2471,872.05689 L 315.94689,872.05689 C 317.97952,872.23644 318.43103,882.81288 315.43113,882.69264 L 270.11728,882.69264 C 266.54233,882.21623 266.64706,872.5333 270.2471,872.05689 z M 271.0727,886.14321 L 315.51942,886.14321 C 317.49632,886.23839 318.05826,891.51026 315.14061,891.44652 L 270.94644,891.44652 C 267.46951,891.19398 267.57136,886.39575 271.0727,886.14321 z M 270.0523,896.95653 L 272.99873,896.95653 C 271.98682,900.8851 269.41174,934.85057 244.10714,933.96933 C 213.63378,932.90808 235.17857,896.23123 231.07142,877.36218 C 232.38099,893.99685 209.00531,936.22446 243.39286,937.8979 C 271.77528,939.27911 275.26064,901.15296 276.65945,896.95653 L 279.96302,896.95653 C 273.26547,947.19888 251.56134,951.08463 241.51785,951.20147 C 222.53465,951.42439 210.80451,937.19092 210.7035,918.26426 C 210.60087,899.03466 225.69736,892.3216 221.69643,872.36218 C 243.51041,869.71268 246.27497,878.57329 243.09679,899.20447 C 242.01742,906.21121 244.13083,915.83649 251.875,916.29075 C 261.93259,916.87399 266.4103,905.20825 270.0523,896.95653 z M 314.21497,896.95653 L 311.2794,896.95653 C 312.28758,900.92249 315.10526,932.56447 340.3167,931.67484 C 370.67788,930.6035 349.21241,893.57758 353.30444,874.52894 C 351.99969,891.32193 375.28932,933.95143 341.02835,935.6408 C 312.75042,937.03515 309.02581,901.1929 307.63216,896.95653 C 306.53502,896.95653 305.43789,896.95653 304.34075,896.95653 C 311.01364,947.67705 332.88995,948.95304 342.89647,949.07099 C 361.80978,949.29603 373.49674,934.92709 373.59738,915.8203 C 373.69963,896.40768 358.65871,889.63073 362.64491,869.48135 C 340.91124,866.80664 338.15686,875.75158 341.32333,896.57911 C 342.39873,903.65254 340.2931,913.36943 332.57744,913.82801 C 322.55688,914.4168 317.84358,905.28679 314.21497,896.95653 z M 285.5575,896.95653 C 281.16646,931.01259 271.99131,940.54579 262.00831,950.58931 C 260.44644,961.23619 264.78061,972.05128 274.81936,978.58455 C 283.90482,984.49741 287.81857,990.59264 292.6917,1000.8444 C 297.83721,990.25095 303.74557,981.39745 311.11777,975.85881 C 316.92709,971.49435 325.05191,963.0986 323.62762,948.69528 C 309.80566,936.98422 302.72565,918.74869 299.32082,896.95653 L 297.45836,896.95653 L 292.43916,958.29173 L 288.36698,896.95653 L 285.5575,896.95653 z"
         style="fill:#7e7e7e;fill-opacity:1;fill-rule:evenodd;stroke:none;stroke-width:1px;stroke-linecap:butt;stroke-linejoin:miter;stroke-opacity:1"
         id="path3314" />
    </g>
  </g>
</svg>
